<svg xmlns="http://www.w3.org/2000/svg" viewBox="0 0 560 160" width="560" height="160"><defs><linearGradient id="bgG" x1="0%" y1="0%" x2="100%" y2="100%"><stop offset="0%" style="stop-color:#071428"/><stop offset="100%" style="stop-color:#0d1f3c"/></linearGradient><linearGradient id="brainG" x1="0%" y1="0%" x2="100%" y2="100%"><stop offset="0%" style="stop-color:#1a3a6e"/><stop offset="100%" style="stop-color:#0d2550"/></linearGradient><linearGradient id="cloudG" x1="0%" y1="100%" x2="100%" y2="0%"><stop offset="0%" style="stop-color:#1a6fd4"/><stop offset="50%" style="stop-color:#2196f3"/><stop offset="100%" style="stop-color:#4fc3f7"/></linearGradient><linearGradient id="planetG" x1="0%" y1="0%" x2="100%" y2="100%"><stop offset="0%" style="stop-color:#4fc3f7"/><stop offset="100%" style="stop-color:#1a6fd4"/></linearGradient><linearGradient id="cyanG" x1="0%" y1="0%" x2="100%" y2="0%"><stop offset="0%" style="stop-color:#29c5f6"/><stop offset="100%" style="stop-color:#00b4d8"/></linearGradient><filter id="glow"><feGaussianBlur stdDeviation="2.5" result="blur"/><feMerge><feMergeNode in="blur"/><feMergeNode in="SourceGraphic"/></feMerge></filter><filter id="sh"><feDropShadow dx="0" dy="4" stdDeviation="6" flood-color="#000" flood-opacity="0.35"/></filter><clipPath id="bc"><rect x="8" y="12" width="68" height="132"/></clipPath></defs><rect width="560" height="160" rx="16" fill="url(#bgG)"/><path d="M 76,112 L 65,112 Q 58,112 55,105 Q 50,96 56,88 Q 52,82 54,73 Q 57,60 68,57 Q 74,50 83,50 Q 88,41 100,38 Q 118,33 128,46 Q 138,38 150,43 Q 164,49 162,63 Q 169,66 172,75 Q 176,86 168,96 Q 162,104 152,106 L 76,112 Z" fill="url(#cloudG)" filter="url(#sh)"/><ellipse cx="152" cy="52" rx="22" ry="8" fill="none" stroke="#29c5f6" stroke-width="2.5" stroke-opacity="0.92" transform="rotate(-22,152,52)"/><circle cx="152" cy="50" r="13" fill="url(#planetG)" filter="url(#glow)"/><ellipse cx="148" cy="45" rx="4.5" ry="3.5" fill="rgba(255,255,255,0.28)" transform="rotate(-15,148,45)"/><path d="M 131,57 Q 136,63 152,64 Q 168,63 173,57" fill="none" stroke="#29c5f6" stroke-width="2.5" stroke-opacity="0.92" stroke-linecap="round"/><path d="M 76,112 L 72,112 Q 58,112 52,100 Q 46,88 52,78 Q 47,71 47,62 Q 47,48 60,42 Q 66,39 73,40 Q 76,32 84,30 Q 92,27 98,32 Q 101,26 109,25 Q 119,22 124,33 Q 130,28 136,36 Q 144,44 141,55 Q 146,57 148,64 Q 150,72 145,79 L 76,112 Z" fill="url(#brainG)" clip-path="url(#bc)"/><line x1="76" y1="26" x2="76" y2="114" stroke="#071428" stroke-width="3.5"/><line x1="49" y1="56" x2="72" y2="56" stroke="#29c5f6" stroke-width="1.5" stroke-opacity="0.88"/><line x1="47" y1="67" x2="70" y2="67" stroke="#29c5f6" stroke-width="1.5" stroke-opacity="0.88"/><line x1="50" y1="78" x2="72" y2="78" stroke="#29c5f6" stroke-width="1.4" stroke-opacity="0.8"/><line x1="49" y1="89" x2="72" y2="89" stroke="#29c5f6" stroke-width="1.4" stroke-opacity="0.75"/><line x1="53" y1="100" x2="72" y2="100" stroke="#29c5f6" stroke-width="1.2" stroke-opacity="0.65"/><line x1="56" y1="48" x2="56" y2="60" stroke="#29c5f6" stroke-width="1.5" stroke-opacity="0.88"/><line x1="63" y1="56" x2="63" y2="72" stroke="#29c5f6" stroke-width="1.4" stroke-opacity="0.85"/><line x1="50" y1="67" x2="50" y2="82" stroke="#29c5f6" stroke-width="1.3" stroke-opacity="0.78"/><line x1="59" y1="78" x2="59" y2="94" stroke="#29c5f6" stroke-width="1.3" stroke-opacity="0.75"/><line x1="66" y1="89" x2="66" y2="104" stroke="#29c5f6" stroke-width="1.2" stroke-opacity="0.65"/><circle cx="49" cy="56" r="3.2" fill="#29c5f6" filter="url(#glow)"/><circle cx="47" cy="67" r="3.2" fill="#29c5f6" filter="url(#glow)"/><circle cx="50" cy="78" r="2.8" fill="#1a6fd4"/><circle cx="49" cy="89" r="2.8" fill="#1a6fd4"/><circle cx="53" cy="100" r="2.4" fill="#29c5f6" filter="url(#glow)"/><circle cx="56" cy="48" r="2.8" fill="#29c5f6" filter="url(#glow)"/><circle cx="63" cy="72" r="2.8" fill="#29c5f6" filter="url(#glow)"/><circle cx="56" cy="56" r="4" fill="#071428" stroke="#29c5f6" stroke-width="1.6"/><circle cx="63" cy="67" r="4" fill="#071428" stroke="#1a6fd4" stroke-width="1.6"/><circle cx="50" cy="82" r="3.5" fill="#071428" stroke="#29c5f6" stroke-width="1.5"/><circle cx="59" cy="89" r="3.5" fill="#071428" stroke="#1a6fd4" stroke-width="1.5"/><line x1="76" y1="22" x2="76" y2="116" stroke="#071428" stroke-width="3.5"/><text x="200" y="88" font-family="Segoe UI,Helvetica Neue,Arial,sans-serif" font-size="58" font-weight="800" letter-spacing="-1.5" fill="#0a1e3d">Neur</text><text x="348" y="88" font-family="Segoe UI,Helvetica Neue,Arial,sans-serif" font-size="58" font-weight="800" letter-spacing="-1.5" fill="url(#cyanG)">Ops</text><text x="201" y="112" font-family="Segoe UI,Arial,sans-serif" font-size="14" font-weight="400" letter-spacing="2.8" fill="#4a6a8a">AI-Driven Cloud Operations</text></svg>